<?xml version="1.0" standalone="no"?>
<!DOCTYPE svg PUBLIC "-//W3C//DTD SVG 20010904//EN"
 "http://www.w3.org/TR/2001/REC-SVG-20010904/DTD/svg10.dtd">
<svg version="1.0" xmlns="http://www.w3.org/2000/svg"
 width="1185.000000pt" height="1185.000000pt" viewBox="0 0 1185.000000 1185.000000"
 preserveAspectRatio="xMidYMid meet">
<metadata>
Created by potrace 1.14, written by Peter Selinger 2001-2017
</metadata>
<g transform="translate(0.000000,1185.000000) scale(0.100000,-0.100000)"
fill="#000000" stroke="none">
<path d="M343 8597 c-3 -5 -5 -1107 -5 -2450 l0 -2442 253 -2 c140 -1 269 -2
287 -2 l32 -1 0 -200 c0 -153 3 -200 13 -201 6 0 2395 -1 5307 -1 l5295 -1 3
2375 2 2376 -192 -1 -193 0 -2 264 c-1 145 -2 270 -2 276 -1 10 -1093 13
-5397 15 -2968 2 -5398 -1 -5401 -5z"/>
</g>
</svg>
