<?xml version="1.0" standalone="no"?>
<!DOCTYPE svg PUBLIC "-//W3C//DTD SVG 20010904//EN"
 "http://www.w3.org/TR/2001/REC-SVG-20010904/DTD/svg10.dtd">
<svg version="1.0" xmlns="http://www.w3.org/2000/svg"
 width="4096.000000pt" height="2034.000000pt" viewBox="0 0 4096.000000 2034.000000"
 preserveAspectRatio="xMidYMid meet">
<metadata>
Created by potrace 1.16, written by Peter Selinger 2001-2019
</metadata>
<g transform="translate(0.000000,2034.000000) scale(0.100000,-0.100000)"
fill="#000000" stroke="none">
<path d="M890 10940 l0 -8510 990 0 990 0 0 -705 0 -705 18450 0 18450 0 0
8255 0 8255 -670 0 -670 0 0 960 0 960 -18770 0 -18770 0 0 -8510z m36890 -5
l0 -7865 -18122 2 -18123 3 -3 7863 -2 7862 18125 0 18125 0 0 -7865z"/>
<path d="M11400 15230 l0 -750 148 0 c81 0 191 3 245 7 l97 6 0 504 0 503 505
0 505 0 -2 238 -3 237 -747 3 -748 2 0 -750z"/>
<path d="M16810 15781 c0 -109 3 -219 6 -245 l7 -46 503 0 504 0 0 -505 0
-505 240 0 240 0 -2 748 -3 747 -747 3 -748 2 0 -199z"/>
<path d="M14624 15050 c-610 -51 -1151 -316 -1522 -745 -297 -344 -482 -768
-543 -1245 -16 -123 -16 -458 0 -580 101 -783 538 -1416 1206 -1748 215 -107
409 -169 670 -214 114 -20 165 -23 415 -23 249 0 303 3 427 23 406 65 767 223
1074 470 96 77 268 255 343 355 228 304 379 663 443 1052 26 157 26 593 0 750
-132 801 -606 1422 -1317 1728 -189 81 -343 123 -573 158 -151 23 -466 32
-623 19z m363 -961 c497 -55 873 -433 994 -999 19 -89 23 -136 23 -310 1 -174
-3 -222 -21 -315 -85 -417 -310 -738 -633 -900 -177 -89 -333 -121 -544 -112
-163 7 -288 37 -422 103 -362 177 -609 549 -665 998 -15 127 -6 432 16 536
130 599 563 994 1108 1009 26 0 91 -4 144 -10z"/>
<path d="M21790 15054 c-252 -25 -424 -59 -603 -118 -656 -218 -1146 -701
-1382 -1366 -154 -431 -176 -939 -60 -1396 64 -252 173 -500 309 -702 351
-526 873 -852 1532 -957 133 -22 507 -31 655 -16 415 40 754 157 1073 368 430
286 746 732 891 1260 66 238 79 348 80 638 0 256 -5 309 -41 495 -116 585
-459 1103 -941 1421 -379 250 -782 368 -1273 374 -113 1 -221 0 -240 -1z m420
-978 c400 -86 711 -379 849 -802 103 -314 105 -685 5 -991 -132 -405 -422
-696 -795 -798 -116 -32 -311 -43 -442 -26 -464 62 -846 444 -957 958 -60 276
-44 590 41 853 32 96 112 257 170 339 185 264 472 444 768 481 86 11 279 4
361 -14z"/>
<path d="M28525 15048 c-232 -23 -471 -89 -670 -188 -285 -139 -495 -323 -667
-582 l-68 -101 0 401 0 402 -510 0 -510 0 0 -2205 0 -2205 565 0 565 0 0 1294
0 1295 26 73 c148 411 488 736 850 813 101 21 254 19 348 -5 111 -28 170 -63
261 -155 119 -119 176 -246 222 -495 16 -87 18 -213 20 -1457 l4 -1363 564 0
565 0 0 1288 c0 1236 1 1291 19 1344 120 350 359 632 656 774 125 59 190 75
340 81 148 6 216 -6 324 -58 78 -38 193 -145 240 -224 50 -83 98 -219 123
-347 21 -112 22 -126 25 -1485 l4 -1373 564 0 565 0 0 1433 c0 861 -4 1488
-10 1572 -40 555 -166 906 -414 1150 -231 228 -477 322 -866 330 -336 7 -610
-52 -885 -190 -163 -82 -290 -172 -423 -300 -119 -114 -207 -220 -290 -348
-50 -78 -57 -85 -63 -65 -76 258 -154 401 -309 562 -193 201 -398 295 -730
335 -94 11 -316 11 -435 -1z"/>
<path d="M6160 14585 l0 -395 1176 -2 1177 -3 -973 -1160 c-1257 -1498 -1321
-1574 -1407 -1676 l-73 -86 0 -346 0 -347 1840 0 1840 0 0 395 0 395 -1236 2
-1237 3 1217 1460 1216 1459 0 348 0 348 -1770 0 -1770 0 0 -395z"/>
<path d="M11400 10315 l0 -745 750 0 750 0 0 123 c0 68 -3 179 -7 245 l-6 122
-504 0 -503 0 0 500 0 500 -240 0 -240 0 0 -745z"/>
<path d="M17818 10553 l-3 -508 -502 -3 -503 -2 0 -235 0 -235 750 0 750 0 0
745 0 745 -245 0 -245 0 -2 -507z"/>
<path d="M12340 7690 c-41 -4 -104 -15 -140 -25 -227 -58 -402 -232 -465 -460
-25 -89 -32 -340 -12 -436 45 -217 165 -383 339 -468 119 -58 202 -74 398 -74
201 0 278 15 403 80 103 53 213 166 262 267 58 122 78 238 72 426 -6 179 -20
238 -80 355 -102 196 -285 306 -557 335 -104 11 -111 11 -220 0z m259 -365
c112 -61 156 -163 155 -360 -1 -271 -81 -394 -267 -412 -144 -13 -270 67 -307
196 -22 77 -31 203 -20 300 23 214 125 315 310 308 61 -3 86 -9 129 -32z"/>
<path d="M21305 7689 c-293 -32 -494 -190 -574 -451 -60 -198 -43 -485 40
-652 83 -166 216 -283 379 -329 141 -41 388 -46 523 -11 135 35 253 119 330
234 41 62 102 219 90 231 -4 4 -86 30 -182 59 -96 29 -180 54 -187 57 -7 3
-18 -15 -29 -49 -24 -71 -40 -101 -77 -143 -51 -59 -100 -79 -193 -79 -181 -1
-262 96 -280 334 -8 115 7 242 36 310 26 59 100 132 155 150 21 8 66 13 99 13
105 0 187 -49 230 -138 15 -30 33 -55 41 -55 11 0 233 48 352 75 30 7 28 23
-14 108 -91 184 -209 277 -408 322 -83 18 -235 25 -331 14z"/>
<path d="M29185 7690 c-187 -21 -314 -79 -431 -194 -62 -62 -90 -99 -117 -156
-62 -130 -72 -182 -72 -385 0 -161 3 -188 23 -255 70 -222 218 -376 423 -438
154 -47 396 -52 554 -12 206 53 368 197 436 390 41 114 53 210 46 373 -4 107
-10 159 -27 212 -73 234 -228 380 -462 439 -105 27 -268 38 -373 26z m207
-340 c62 -18 129 -70 160 -127 89 -159 64 -499 -44 -600 -64 -60 -195 -87
-289 -60 -125 37 -189 126 -210 296 -31 242 43 434 186 485 48 17 145 20 197
6z"/>
<path d="M6070 6961 l0 -711 220 0 220 0 0 258 0 259 193 6 c214 7 289 21 379
69 147 78 217 225 205 431 -8 151 -58 248 -161 317 -108 74 -107 74 -608 78
l-448 3 0 -710z m675 408 c80 -23 127 -106 106 -187 -22 -81 -93 -115 -241
-116 l-95 -1 -3 145 c-1 79 0 150 2 157 7 17 173 18 231 2z"/>
<path d="M8880 6961 l0 -711 225 0 225 0 0 285 0 285 45 0 c67 0 117 -30 157
-93 18 -30 85 -149 148 -265 l115 -212 253 0 253 0 -107 208 c-143 276 -192
341 -299 395 l-49 24 34 8 c58 13 149 64 195 110 179 178 133 517 -84 621 -92
45 -124 47 -628 51 l-483 4 0 -710z m793 396 c83 -54 85 -178 4 -227 -38 -23
-170 -42 -267 -38 l-75 3 -3 143 -3 144 159 -4 c130 -2 163 -6 185 -21z"/>
<path d="M14800 6961 l0 -711 385 0 c354 0 393 2 483 21 128 28 199 65 281
148 79 79 131 173 158 288 27 118 25 398 -5 508 -61 226 -196 372 -397 431
-52 15 -117 18 -482 21 l-423 4 0 -710z m700 368 c28 -8 63 -31 91 -59 63 -60
80 -117 86 -285 8 -224 -29 -334 -132 -385 -42 -21 -67 -25 -172 -28 l-123 -4
0 392 0 393 103 -5 c56 -3 122 -12 147 -19z"/>
<path d="M17720 7197 c0 -445 1 -478 21 -553 25 -99 49 -149 102 -215 98 -124
221 -179 443 -200 214 -19 389 1 514 59 78 36 198 158 238 242 58 123 62 170
62 680 l0 460 -222 -2 -223 -3 -5 -480 -5 -480 -27 -47 c-40 -67 -110 -100
-211 -100 -131 1 -212 60 -236 173 -7 31 -11 216 -11 494 l0 445 -220 0 -220
0 0 -473z"/>
<path d="M23570 7495 l0 -175 225 0 225 0 0 -535 0 -535 225 0 225 0 0 535 0
535 225 0 225 0 0 175 0 175 -675 0 -675 0 0 -175z"/>
<path d="M26490 6960 l0 -710 225 0 225 0 0 710 0 710 -225 0 -225 0 0 -710z"/>
<path d="M31650 6960 l0 -710 210 0 210 0 0 386 0 387 267 -387 267 -386 213
0 213 0 0 710 0 710 -210 0 -210 0 -2 -391 -3 -391 -99 144 c-55 78 -176 254
-270 391 l-170 247 -208 0 -208 0 0 -710z"/>
</g>
</svg>
