<svg id="Calque_1" data-name="Calque 1" xmlns="http://www.w3.org/2000/svg" viewBox="0 0 384 384"><defs><style>.cls-1{fill:#fff;}</style></defs><path class="cls-1" d="M948,768h24c6.42.83,12.87,1.43,19.24,2.52,36.46,6.2,68.69,21.43,96.22,46.12,33.09,29.67,53.8,66.43,61.59,110.28,1.24,7,2,14.05,3,21.08v24a21,21,0,0,0-.62,2.89c-2.27,29.62-10.76,57.36-26.23,82.69-30.47,49.93-74.49,80.63-132.09,91.48-7,1.31-14,2-21.06,2.94H948c-4.68-.58-9.38-1.08-14-1.75-38.21-5.47-72-20.78-100.83-46.41C799.78,1074.22,779,1037.39,771,993.45c-1.29-7.1-2-14.3-3-21.45V948c.58-4.69,1.06-9.39,1.74-14.07,6-41.85,23.69-78.06,53.32-108.23,28.74-29.27,63.4-47.63,103.87-54.75C933.91,769.72,941,769,948,768ZM930.25,966.73v111.12h46.34V966.59h31.18c1.34-13.16,2.65-26,4-39.17H977c-.27-.65-.45-.87-.45-1.09q-.06-9.93-.07-19.87c0-10.05,2.85-12.88,13-12.88H1011V855.77a6.24,6.24,0,0,0-1.51-.39c-12,0-24-.65-36,0-24.36,1.42-39,14.07-42.29,37.11-1.44,9.94-.74,20.18-1,30.29,0,1.44-.12,2.87-.21,4.76H908.47v39.14Z" transform="translate(-768 -768)"/><path class="cls-1" d="M768,972c1,7.15,1.7,14.35,3,21.45,8,43.94,28.79,80.77,62.13,110.39,28.86,25.63,62.62,40.94,100.83,46.41,4.67.67,9.37,1.17,14,1.75H768Z" transform="translate(-768 -768)"/><path class="cls-1" d="M972,1152c7-1,14.1-1.63,21.06-2.94,57.6-10.85,101.62-41.55,132.09-91.48,15.47-25.33,24-53.07,26.23-82.69A21,21,0,0,1,1152,972v180Z" transform="translate(-768 -768)"/><path class="cls-1" d="M948,768c-7,1-14.09,1.72-21.07,3-40.47,7.12-75.13,25.48-103.87,54.75-29.63,30.17-47.28,66.38-53.32,108.23-.68,4.68-1.16,9.38-1.74,14.07V768Z" transform="translate(-768 -768)"/><path class="cls-1" d="M1152,948c-1-7-1.71-14.1-3-21.08-7.79-43.85-28.5-80.61-61.59-110.28-27.53-24.69-59.76-39.92-96.22-46.12-6.37-1.09-12.82-1.69-19.24-2.52h180Z" transform="translate(-768 -768)"/><path d="M930.25,966.73H908.47V927.59H930c.09-1.89.17-3.32.21-4.76.27-10.11-.43-20.35,1-30.29,3.34-23,17.93-35.69,42.29-37.11,12-.7,24-.09,36,0a6.24,6.24,0,0,1,1.51.39v37.81H989.47c-10.1,0-13,2.83-13,12.88q0,9.93.07,19.87c0,.22.18.44.45,1.09h34.73c-1.35,13.18-2.66,26-4,39.17H976.59v111.26H930.25Z" transform="translate(-768 -768)"/></svg>