<svg id="Calque_1" data-name="Calque 1" xmlns="http://www.w3.org/2000/svg" viewBox="0 0 512 512"><defs><style>.cls-1{fill:#fff;}</style></defs><path class="cls-1" d="M944,704h32a28.69,28.69,0,0,0,3.85.82c39.86,3,77.18,14.42,111.18,35.35,66.08,40.69,106.78,99.2,121,175.71,1.73,9.3,2.64,18.74,3.93,28.12v32c-.41,3.28-.87,6.56-1.22,9.85-5.48,50.63-23.83,96.05-56.15,135.44-40.19,49-91.6,79.38-154.05,90.75-9.45,1.72-19.05,2.66-28.58,4H944c-6.25-.77-12.51-1.44-18.74-2.32-47.23-6.72-89.65-24.72-126.52-55-48.94-40.24-79.42-91.58-90.76-154-1.72-9.47-2.67-19.07-4-28.61V944c.4-3.28.85-6.55,1.21-9.84,5.92-54.23,26.43-102.18,62.6-143.06,39.78-45,89.32-72.91,148.58-83.24C925.54,706.27,934.8,705.27,944,704Zm16,110c-21,0-42-.38-63,.12-17,.41-33.37,4.39-47.77,14.06-23.89,16-34.34,39.72-34.93,67.33-.91,43-.57,86-.07,128.94.2,16.5,4.56,32.33,14,46.28,16.18,24,40,34.39,67.84,35,42.63.88,85.3.69,127.94,0,21.14-.32,40.65-6.79,56.55-21.72,17.62-16.55,24.75-37.73,25.32-61.09.85-35,.87-70,.9-105a307.46,307.46,0,0,0-1.78-30.92c-4-39.74-32.33-68.58-72.07-71.88C1008.68,813.16,960,813.42,960,814Z" transform="translate(-704 -704)"/><path class="cls-1" d="M704,976c1.31,9.54,2.26,19.14,4,28.61,11.34,62.46,41.82,113.8,90.76,154,36.87,30.31,79.29,48.31,126.52,55,6.23.88,12.49,1.55,18.74,2.32H704Z" transform="translate(-704 -704)"/><path class="cls-1" d="M976,1216c9.53-1.3,19.13-2.24,28.58-4,62.45-11.37,113.86-41.78,154.05-90.75,32.32-39.39,50.67-84.81,56.15-135.44.35-3.29.81-6.57,1.22-9.85v240Z" transform="translate(-704 -704)"/><path class="cls-1" d="M1216,944c-1.29-9.38-2.2-18.82-3.93-28.12-14.26-76.51-55-135-121-175.71-34-20.93-71.32-32.37-111.18-35.35A28.69,28.69,0,0,1,976,704h240Z" transform="translate(-704 -704)"/><path class="cls-1" d="M944,704c-9.2,1.27-18.46,2.27-27.61,3.86-59.26,10.33-108.8,38.29-148.58,83.24-36.17,40.88-56.68,88.83-62.6,143.06-.36,3.29-.81,6.56-1.21,9.84V704Z" transform="translate(-704 -704)"/><path d="M1032.89,815.17c39.74,3.3,68.12,32.14,72.07,71.88a307.46,307.46,0,0,1,1.78,30.92c0,35,0,70-.9,105-.57,23.36-7.7,44.54-25.32,61.09-15.9,14.93-35.41,21.4-56.55,21.72-42.64.65-85.31.84-127.94,0-27.8-.57-51.66-10.93-67.84-35-9.39-14-13.75-29.78-14-46.28-.5-43-.84-86,.07-128.94.59-27.61,11-51.31,34.93-67.33,14.4-9.67,30.73-13.65,47.77-14.06C918,813.64,1008.68,813.16,1032.89,815.17Zm-129.22,25c-12.21.18-24.33,1.65-35.35,7.49-17.94,9.49-26.69,25.53-27.07,44.85-.88,44.61-1.23,89.27,0,133.86.85,31.45,21,51.52,52.45,52.37q66.39,1.82,132.85,0c31.09-.83,51.42-21.11,52.24-52.09q1.77-66.65,0-133.36c-.82-31.07-21.07-50.39-52.2-52.26C1004.63,839.74,922.65,839.92,903.67,840.21Z" transform="translate(-704 -704)"/><path class="cls-1" d="M1026.56,841.06c31.13,1.87,51.38,21.19,52.2,52.26q1.77,66.63,0,133.36c-.82,31-21.15,51.26-52.24,52.09q-66.39,1.79-132.85,0c-31.48-.85-51.6-20.92-52.45-52.37-1.2-44.59-.85-89.25,0-133.86.38-19.32,9.13-35.36,27.07-44.85,11-5.84,23.14-7.31,35.35-7.49C922.65,839.92,1004.63,839.74,1026.56,841.06Zm8.87,119a75.44,75.44,0,1,0-75.7,75.42A75.3,75.3,0,0,0,1035.43,960ZM1056,881.43a17.56,17.56,0,1,0-17.73,17.64A17.5,17.5,0,0,0,1056,881.43Z" transform="translate(-704 -704)"/><path d="M1035.43,960a75.44,75.44,0,1,1-75.17-75.44A75.36,75.36,0,0,1,1035.43,960Zm-26.45.14A49,49,0,1,0,960,1009,49.05,49.05,0,0,0,1009,960.15Z" transform="translate(-704 -704)"/><path d="M1056,881.43A17.56,17.56,0,1,1,1038.62,864,17.46,17.46,0,0,1,1056,881.43Z" transform="translate(-704 -704)"/><path class="cls-1" d="M1009,960.15A49,49,0,1,1,960.28,911,49,49,0,0,1,1009,960.15Z" transform="translate(-704 -704)"/></svg>