<svg id="Calque_1" data-name="Calque 1" xmlns="http://www.w3.org/2000/svg" viewBox="0 0 384 384"><defs><style>.cls-1{fill:#fff;}</style></defs><path class="cls-1" d="M948.75,768H972a20.63,20.63,0,0,0,2.89.61c28.84,2.18,55.95,10.24,80.8,25,51.06,30.37,82.37,74.79,93.37,133.29,1.31,7,2,14.06,2.94,21.09v23.25c-.21,1.2-.47,2.4-.64,3.61-1,7.54-1.7,15.15-3.14,22.61-15,77.3-77.49,138.37-155.16,151.59-7,1.18-14,2-21.06,2.94H948a14.75,14.75,0,0,0-2.48-.62,170.86,170.86,0,0,1-47.5-9.81q-104.6-38.76-127-148.14c-1.45-7-2-14.28-3-21.43V948c1-7,1.74-14.08,2.94-21.07,13.26-77.69,74.3-140.22,151.55-155.15C931.16,770.11,940,769.24,948.75,768Zm21.33,175c0-3.38,0-5.83,0-8.27-.1-5.28-2.05-7.34-7.22-7.38q-13.12-.11-26.24,0c-5.14,0-7.24,2.2-7.25,7.4q0,57,0,114c0,5.13,2.21,7.27,7.34,7.29,8.37,0,16.75,0,25.12,0,6.2,0,8-1.83,8-8,0-19.24,0-38.48,0-57.72A38.72,38.72,0,0,1,975,970.55c4.81-8.22,12.24-11,21.36-9.83,8.29,1,13.5,6,15.38,13.82a82.87,82.87,0,0,1,2.13,18.12c.25,18.61.06,37.23.07,55.84,0,5.47,2,7.47,7.43,7.49q13.3,0,26.61,0c5.42,0,7.43-2,7.43-7.49,0-21.24.2-42.48-.12-63.72a130.54,130.54,0,0,0-2.38-23.42c-3.58-18-13.18-30.87-32.14-34.73a62.68,62.68,0,0,0-28.6.74,35.51,35.51,0,0,0-19.69,12.87C971.92,940.91,971.34,941.53,970.08,943Zm-99.45,48.43q0,28.47,0,57c0,5.25,2.32,7.58,7.5,7.61q12.55.08,25.11,0c5.57,0,7.91-2.39,7.92-8.06q0-56.21,0-112.4c0-5.85-2.3-8.15-8.18-8.19-7.87-.05-15.73,0-23.6,0-6.76,0-8.76,2-8.77,8.65Q870.62,963.72,870.63,991.43Zm-6-101.32A26.21,26.21,0,1,0,890.93,864,26.2,26.2,0,0,0,864.67,890.11Z" transform="translate(-768 -768)"/><path class="cls-1" d="M972,1152c7-1,14.07-1.76,21.06-2.94,77.67-13.22,140.21-74.29,155.16-151.59,1.44-7.46,2.1-15.07,3.14-22.61.17-1.21.43-2.41.64-3.61V1152Z" transform="translate(-768 -768)"/><path class="cls-1" d="M768,972c1,7.15,1.59,14.38,3,21.43q22.4,109.25,127,148.14a170.86,170.86,0,0,0,47.5,9.81,14.75,14.75,0,0,1,2.48.62H768Z" transform="translate(-768 -768)"/><path class="cls-1" d="M948.75,768c-8.76,1.24-17.59,2.11-26.26,3.78-77.25,14.93-138.29,77.46-151.55,155.15-1.2,7-2,14-2.94,21.07V768Z" transform="translate(-768 -768)"/><path class="cls-1" d="M1152,948c-1-7-1.63-14.12-2.94-21.09-11-58.5-42.31-102.92-93.37-133.29-24.85-14.77-52-22.83-80.8-25A20.63,20.63,0,0,1,972,768h180Z" transform="translate(-768 -768)"/><path d="M970.08,943c1.26-1.47,1.84-2.09,2.36-2.76a35.51,35.51,0,0,1,19.69-12.87,62.68,62.68,0,0,1,28.6-.74c19,3.86,28.56,16.77,32.14,34.73a130.54,130.54,0,0,1,2.38,23.42c.32,21.24.14,42.48.12,63.72,0,5.47-2,7.47-7.43,7.49q-13.31,0-26.61,0c-5.42,0-7.42-2-7.43-7.49,0-18.61.18-37.23-.07-55.84a82.87,82.87,0,0,0-2.13-18.12c-1.88-7.8-7.09-12.79-15.38-13.82-9.12-1.14-16.55,1.61-21.36,9.83a38.72,38.72,0,0,0-5.07,19.72c-.07,19.24,0,38.48,0,57.72,0,6.18-1.84,8-8,8-8.37,0-16.75,0-25.12,0-5.13,0-7.33-2.16-7.34-7.29q0-57,0-114c0-5.2,2.11-7.36,7.25-7.4q13.11-.11,26.24,0c5.17,0,7.12,2.1,7.22,7.38C970.12,937.17,970.08,939.62,970.08,943Z" transform="translate(-768 -768)"/><path d="M870.63,991.43q0-27.72,0-55.45c0-6.66,2-8.63,8.77-8.65,7.87,0,15.73,0,23.6,0,5.88,0,8.17,2.34,8.18,8.19q0,56.21,0,112.4c0,5.67-2.35,8-7.92,8.06q-12.56.06-25.11,0c-5.18,0-7.49-2.36-7.5-7.61Q870.59,1019.91,870.63,991.43Z" transform="translate(-768 -768)"/><path d="M864.67,890.11a26.21,26.21,0,1,1,52.42.21,26.21,26.21,0,1,1-52.42-.21Z" transform="translate(-768 -768)"/></svg>