<?xml version="1.0" standalone="no"?>
<!DOCTYPE svg PUBLIC "-//W3C//DTD SVG 20010904//EN"
 "http://www.w3.org/TR/2001/REC-SVG-20010904/DTD/svg10.dtd">
<svg version="1.0" xmlns="http://www.w3.org/2000/svg"
 width="20.000000pt" height="20.000000pt" viewBox="0 0 20.000000 20.000000"
 preserveAspectRatio="xMidYMid meet">

<g transform="translate(0.000000,20.000000) scale(0.100000,-0.100000)"
fill="#000000" stroke="none">
<path d="M90 140 c0 -22 5 -40 10 -40 6 0 10 18 10 40 0 22 -4 40 -10 40 -5 0
-10 -18 -10 -40z"/>
<path d="M20 134 c-13 -33 -13 -40 5 -73 8 -16 28 -34 45 -41 64 -26 135 41
113 106 -5 15 -16 30 -24 32 -11 4 -12 2 -2 -9 20 -20 16 -83 -5 -102 -25 -23
-85 -22 -105 1 -20 22 -22 83 -5 100 9 9 9 12 0 12 -7 0 -17 -12 -22 -26z"/>
</g>
</svg>
