<?xml version="1.0" standalone="no"?>
<!DOCTYPE svg PUBLIC "-//W3C//DTD SVG 20010904//EN"
 "http://www.w3.org/TR/2001/REC-SVG-20010904/DTD/svg10.dtd">
<svg version="1.0" xmlns="http://www.w3.org/2000/svg"
 width="25.000000pt" height="25.000000pt" viewBox="0 0 25.000000 25.000000"
 preserveAspectRatio="xMidYMid meet">

<g transform="translate(0.000000,25.000000) scale(0.100000,-0.100000)"
fill="#000000" stroke="none">
<path d="M202 242 c-9 -6 -6 -14 12 -31 24 -23 24 -23 31 -2 11 35 -12 52 -43
33z"/>
<path d="M100 145 l-74 -75 22 -22 22 -23 75 76 76 75 -24 22 -23 22 -74 -75z"/>
<path d="M10 41 c0 -5 -3 -17 -7 -26 -5 -14 -2 -16 18 -10 32 10 34 12 19 30
-14 17 -30 20 -30 6z"/>
</g>
</svg>
