<svg id="Calque_1" data-name="Calque 1" xmlns="http://www.w3.org/2000/svg" viewBox="0 0 384 384"><defs><style>.cls-1{fill:#fff;}</style></defs><path class="cls-1" d="M948,768h23.52a20.92,20.92,0,0,0,2.76.67c3.93.44,7.88.74,11.8,1.23a177.1,177.1,0,0,1,37.46,8.84c28.51,10.16,53.06,26.5,74.36,47.84a176.76,176.76,0,0,1,33.74,47.47,204.59,204.59,0,0,1,19.42,67.59c.24,2.12.62,4.24.94,6.36v23.52a21,21,0,0,0-.68,2.76c-.44,3.89-.74,7.8-1.23,11.68a183.15,183.15,0,0,1-8.57,36.8c-6.36,18.57-15.8,35.49-27.42,51.24-18.29,24.78-40.93,44.39-68.71,57.91a202.65,202.65,0,0,1-67,19.16c-2.13.24-4.25.62-6.37.93H948.48a22.67,22.67,0,0,0-2.76-.68c-5.43-.67-10.89-1.12-16.3-1.94a181,181,0,0,1-53.61-16.81,196.58,196.58,0,0,1-64.4-51.16c-24.86-29.9-38.19-64.62-42.47-103.05-.23-2.13-.62-4.24-.94-6.36V947.76a5.15,5.15,0,0,0,.24-.76c1-7.39,1.83-14.83,3.15-22.18a185.55,185.55,0,0,1,20.75-58,196,196,0,0,1,36.4-46.44,188.05,188.05,0,0,1,43.79-31.19c21.84-11.2,45.11-17.51,69.43-20.21C943.85,768.71,945.92,768.32,948,768Zm18.28,91c0,2.55,0,4.91,0,7.26.05,7.24.13,14.48.15,21.71q.08,18.78.09,37.56c0,19.08,0,38.16,0,57.24a84.57,84.57,0,0,1-2.47,21.49c-1.45,5.62-3.61,10.87-7.8,15-7.24,7.15-16.13,8.75-25.74,7.07-7.26-1.27-13-5.34-17.72-10.89-7.62-8.94-9.17-21-3.93-31.13,3.5-6.82,9.17-11.22,16.3-13.69,4.9-1.71,9.93-3,14.88-4.56a7.33,7.33,0,0,0,2.52-1.32,3.72,3.72,0,0,0,.95-1.91,11.87,11.87,0,0,0,.11-2.39q0-13.92,0-27.84V931.3a4.83,4.83,0,0,0-.63,0,92.4,92.4,0,0,0-24.32,3.83c-26.18,7.87-43.64,29.55-45.27,56.69-1,16.69,3.44,32.07,13.62,45.31,15.15,19.7,35.32,27.39,59.8,22.64,12.86-2.49,23.54-9.31,32.75-18.44,12.86-12.74,19-28.48,19.91-46.34.5-10.42.47-20.86.56-31.29.11-12.28.07-24.56.1-36.84,0-.38,0-.77.07-1.29l1.28.64c6.33,3.4,12.63,6.86,19.45,9.24a61.36,61.36,0,0,0,21.75,3.67c3-.07,4-1.13,3.93-4.06,0-5.16-.14-10.32-.15-15.47,0-3.24.13-6.48.14-9.72,0-2.46-.79-3.39-3.19-3.85-1.42-.27-2.85-.44-4.26-.7-17.26-3.17-29.33-12.67-35.26-29.35-1.82-5.1-3-10.43-4.38-15.68-.26-1-.62-1.31-1.67-1.31-10,.05-20.08,0-30.12,0Z" transform="translate(-768 -768)"/><path d="M966.28,859h1.51c10,0,20.08,0,30.12,0,1.05,0,1.41.35,1.67,1.31,1.4,5.25,2.56,10.58,4.38,15.68,5.93,16.68,18,26.18,35.26,29.35,1.41.26,2.84.43,4.26.7,2.4.46,3.2,1.39,3.19,3.85,0,3.24-.15,6.48-.14,9.72,0,5.15.11,10.31.15,15.47,0,2.93-1,4-3.93,4.06A61.36,61.36,0,0,1,1021,935.4c-6.82-2.38-13.12-5.84-19.45-9.24l-1.28-.64c0,.52-.07.91-.07,1.29,0,12.28,0,24.56-.1,36.84-.09,10.43-.06,20.87-.56,31.29-.86,17.86-7,33.6-19.91,46.34-9.21,9.13-19.89,16-32.75,18.44-24.48,4.75-44.65-2.94-59.8-22.64-10.18-13.24-14.63-28.62-13.62-45.31,1.63-27.14,19.09-48.82,45.27-56.69a92.4,92.4,0,0,1,24.32-3.83,4.83,4.83,0,0,1,.63,0v1.28q0,13.92,0,27.84a11.87,11.87,0,0,1-.11,2.39,3.72,3.72,0,0,1-.95,1.91,7.33,7.33,0,0,1-2.52,1.32c-4.95,1.54-10,2.85-14.88,4.56-7.13,2.47-12.8,6.87-16.3,13.69-5.24,10.17-3.69,22.19,3.93,31.13,4.72,5.55,10.46,9.62,17.72,10.89,9.61,1.68,18.5.08,25.74-7.07,4.19-4.15,6.35-9.4,7.8-15a84.57,84.57,0,0,0,2.47-21.49c-.06-19.08,0-38.16,0-57.24q0-18.78-.09-37.56c0-7.23-.1-14.47-.15-21.71C966.27,863.87,966.28,861.51,966.28,859Z" transform="translate(-768 -768)"/></svg>